<svg id="visual" viewBox="0 0 960 200" width="960" height="200" xmlns="http://www.w3.org/2000/svg" xmlns:xlink="http://www.w3.org/1999/xlink" version="1.1"><rect x="0" y="0" width="960" height="200" fill="#b99d7a"></rect><path d="M0 71L11.5 72C23 73 46 75 68.8 75.5C91.7 76 114.3 75 137.2 75.2C160 75.3 183 76.7 205.8 76.3C228.7 76 251.3 74 274.2 74C297 74 320 76 342.8 78C365.7 80 388.3 82 411.2 82.5C434 83 457 82 480 81C503 80 526 79 548.8 81C571.7 83 594.3 88 617.2 89.3C640 90.7 663 88.3 685.8 85.5C708.7 82.7 731.3 79.3 754.2 79.5C777 79.7 800 83.3 822.8 85.8C845.7 88.3 868.3 89.7 891.2 87.2C914 84.7 937 78.3 948.5 75.2L960 72L960 0L948.5 0C937 0 914 0 891.2 0C868.3 0 845.7 0 822.8 0C800 0 777 0 754.2 0C731.3 0 708.7 0 685.8 0C663 0 640 0 617.2 0C594.3 0 571.7 0 548.8 0C526 0 503 0 480 0C457 0 434 0 411.2 0C388.3 0 365.7 0 342.8 0C320 0 297 0 274.2 0C251.3 0 228.7 0 205.8 0C183 0 160 0 137.2 0C114.3 0 91.7 0 68.8 0C46 0 23 0 11.5 0L0 0Z" fill="#a4825a"></path><path d="M0 64L11.5 64C23 64 46 64 68.8 63.5C91.7 63 114.3 62 137.2 63.7C160 65.3 183 69.7 205.8 69C228.7 68.3 251.3 62.7 274.2 61.3C297 60 320 63 342.8 64.3C365.7 65.7 388.3 65.3 411.2 64C434 62.7 457 60.3 480 58.7C503 57 526 56 548.8 56.3C571.7 56.7 594.3 58.3 617.2 60.8C640 63.3 663 66.7 685.8 67.8C708.7 69 731.3 68 754.2 66.2C777 64.3 800 61.7 822.8 60.5C845.7 59.3 868.3 59.7 891.2 62C914 64.3 937 68.7 948.5 70.8L960 73L960 0L948.5 0C937 0 914 0 891.2 0C868.3 0 845.7 0 822.8 0C800 0 777 0 754.2 0C731.3 0 708.7 0 685.8 0C663 0 640 0 617.2 0C594.3 0 571.7 0 548.8 0C526 0 503 0 480 0C457 0 434 0 411.2 0C388.3 0 365.7 0 342.8 0C320 0 297 0 274.2 0C251.3 0 228.7 0 205.8 0C183 0 160 0 137.2 0C114.3 0 91.7 0 68.8 0C46 0 23 0 11.5 0L0 0Z" fill="#8e6240"></path><path d="M0 52L11.5 50.5C23 49 46 46 68.8 45C91.7 44 114.3 45 137.2 45.3C160 45.7 183 45.3 205.8 47.7C228.7 50 251.3 55 274.2 55C297 55 320 50 342.8 48.7C365.7 47.3 388.3 49.7 411.2 51.2C434 52.7 457 53.3 480 52C503 50.7 526 47.3 548.8 45C571.7 42.7 594.3 41.3 617.2 40.7C640 40 663 40 685.8 40.2C708.7 40.3 731.3 40.7 754.2 40.7C777 40.7 800 40.3 822.8 42.8C845.7 45.3 868.3 50.7 891.2 53.7C914 56.7 937 57.3 948.5 57.7L960 58L960 0L948.5 0C937 0 914 0 891.2 0C868.3 0 845.7 0 822.8 0C800 0 777 0 754.2 0C731.3 0 708.7 0 685.8 0C663 0 640 0 617.2 0C594.3 0 571.7 0 548.8 0C526 0 503 0 480 0C457 0 434 0 411.2 0C388.3 0 365.7 0 342.8 0C320 0 297 0 274.2 0C251.3 0 228.7 0 205.8 0C183 0 160 0 137.2 0C114.3 0 91.7 0 68.8 0C46 0 23 0 11.5 0L0 0Z" fill="#77432a"></path><path d="M0 40L11.5 40.3C23 40.7 46 41.3 68.8 38.5C91.7 35.7 114.3 29.3 137.2 25.8C160 22.3 183 21.7 205.8 24C228.7 26.3 251.3 31.7 274.2 34.8C297 38 320 39 342.8 38.7C365.7 38.3 388.3 36.7 411.2 34.7C434 32.7 457 30.3 480 28.2C503 26 526 24 548.8 25.7C571.7 27.3 594.3 32.7 617.2 35.3C640 38 663 38 685.8 37.8C708.7 37.7 731.3 37.3 754.2 34.5C777 31.7 800 26.3 822.8 26.8C845.7 27.3 868.3 33.7 891.2 34C914 34.3 937 28.7 948.5 25.8L960 23L960 0L948.5 0C937 0 914 0 891.2 0C868.3 0 845.7 0 822.8 0C800 0 777 0 754.2 0C731.3 0 708.7 0 685.8 0C663 0 640 0 617.2 0C594.3 0 571.7 0 548.8 0C526 0 503 0 480 0C457 0 434 0 411.2 0C388.3 0 365.7 0 342.8 0C320 0 297 0 274.2 0C251.3 0 228.7 0 205.8 0C183 0 160 0 137.2 0C114.3 0 91.7 0 68.8 0C46 0 23 0 11.5 0L0 0Z" fill="#5f2517"></path><path d="M0 4L11.5 4.3C23 4.7 46 5.3 68.8 8.8C91.7 12.3 114.3 18.7 137.2 20.8C160 23 183 21 205.8 18.3C228.7 15.7 251.3 12.3 274.2 13C297 13.7 320 18.3 342.8 19.8C365.7 21.3 388.3 19.7 411.2 17.7C434 15.7 457 13.3 480 13.7C503 14 526 17 548.8 16.5C571.7 16 594.3 12 617.2 9.5C640 7 663 6 685.8 8.2C708.7 10.3 731.3 15.7 754.2 16.7C777 17.7 800 14.3 822.8 15C845.7 15.7 868.3 20.3 891.2 21.5C914 22.7 937 20.3 948.5 19.2L960 18L960 0L948.5 0C937 0 914 0 891.2 0C868.3 0 845.7 0 822.8 0C800 0 777 0 754.2 0C731.3 0 708.7 0 685.8 0C663 0 640 0 617.2 0C594.3 0 571.7 0 548.8 0C526 0 503 0 480 0C457 0 434 0 411.2 0C388.3 0 365.7 0 342.8 0C320 0 297 0 274.2 0C251.3 0 228.7 0 205.8 0C183 0 160 0 137.2 0C114.3 0 91.7 0 68.8 0C46 0 23 0 11.5 0L0 0Z" fill="#470202"></path></svg>